# xmcd CD database file
#
# Track frame offsets:
#	150
#	15304
#	32507
#	46172
#	62165
#	79815
#	96348
#	113304
#	134353
#	150129
#	171297
#
# Disc length: 2474 seconds
#
# Revision: 2
# Processed by: cddbd v1.5.2PL0 Copyright (c) Steve Scherf et al.
# Submitted via: CDex 1.51
#
DISCID=7509a80b
DTITLE=BETTER LUCK NEXT TIME - better luck next time
DYEAR=2006
DGENRE=Punk Rock
TTITLE0=Carry On
TTITLE1=Anything Loss Than The Best
TTITLE2=Withut You
TTITLE3=Tomorrow, Maybe
TTITLE4=Motionless
TTITLE5=Dear Paige
TTITLE6=Broken Silence
TTITLE7=Shoebox Memories
TTITLE8=Chapters
TTITLE9=T.G.I. Goodbye
TTITLE10=Without You (Orginal Version)
EXTD=YEAR: 2006
EXTT0=
EXTT1=
EXTT2=
EXTT3=
EXTT4=
EXTT5=
EXTT6=
EXTT7=
EXTT8=
EXTT9=
EXTT10=
PLAYORDER=
